<mxfile host="app.diagrams.net" agent="Mozilla/5.0 (Macintosh; Intel Mac OS X 10_15_7) AppleWebKit/537.36 (KHTML, like Gecko) Chrome/130.0.0.0 Safari/537.36" version="25.0.3">
  <diagram name="Page-1" id="m6fvPsuMGKS1Jg6aNRbR">
    <mxGraphModel dx="1853" dy="684" grid="1" gridSize="10" guides="1" tooltips="1" connect="1" arrows="1" fold="1" page="1" pageScale="1" pageWidth="827" pageHeight="1169" math="0" shadow="0">
      <root>
        <mxCell id="0" />
        <mxCell id="1" parent="0" />
        <mxCell id="gryRLHfR9OgPqtfxZ3uL-4" value="" style="rounded=0;whiteSpace=wrap;html=1;" vertex="1" parent="1">
          <mxGeometry x="-20" y="180" width="910" height="620" as="geometry" />
        </mxCell>
        <mxCell id="gryRLHfR9OgPqtfxZ3uL-7" value="" style="edgeStyle=orthogonalEdgeStyle;html=1;verticalAlign=bottom;endArrow=open;endSize=8;strokeColor=#6c8ebf;rounded=0;fillColor=#dae8fc;exitX=0.333;exitY=0.5;exitDx=0;exitDy=0;entryX=0;entryY=0.5;entryDx=0;entryDy=0;exitPerimeter=0;" edge="1" source="gryRLHfR9OgPqtfxZ3uL-15" parent="1" target="gryRLHfR9OgPqtfxZ3uL-11">
          <mxGeometry relative="1" as="geometry">
            <mxPoint x="325" y="260" as="targetPoint" />
            <mxPoint x="325" y="200" as="sourcePoint" />
            <Array as="points" />
          </mxGeometry>
        </mxCell>
        <mxCell id="gryRLHfR9OgPqtfxZ3uL-10" value="Admin Dashboard" style="shape=umlFrame;whiteSpace=wrap;html=1;pointerEvents=0;fillColor=#dae8fc;strokeColor=#6c8ebf;width=110;height=30;" vertex="1" parent="1">
          <mxGeometry y="340" width="840" height="320" as="geometry" />
        </mxCell>
        <mxCell id="gryRLHfR9OgPqtfxZ3uL-11" value="Check Room Availability" style="rounded=1;whiteSpace=wrap;html=1;fillColor=#dae8fc;strokeColor=#6c8ebf;" vertex="1" parent="1">
          <mxGeometry x="150" y="460" width="140" height="30" as="geometry" />
        </mxCell>
        <mxCell id="gryRLHfR9OgPqtfxZ3uL-12" value="Update room status" style="rounded=1;whiteSpace=wrap;html=1;fillColor=#dae8fc;strokeColor=#6c8ebf;" vertex="1" parent="1">
          <mxGeometry x="380" y="460" width="110" height="30" as="geometry" />
        </mxCell>
        <mxCell id="gryRLHfR9OgPqtfxZ3uL-13" value="Mark as occupied" style="rounded=1;whiteSpace=wrap;html=1;fillColor=#dae8fc;strokeColor=#6c8ebf;" vertex="1" parent="1">
          <mxGeometry x="590" y="390" width="110" height="30" as="geometry" />
        </mxCell>
        <mxCell id="gryRLHfR9OgPqtfxZ3uL-14" value="Mark as Available" style="rounded=1;whiteSpace=wrap;html=1;fillColor=#dae8fc;strokeColor=#6c8ebf;" vertex="1" parent="1">
          <mxGeometry x="600" y="510" width="110" height="30" as="geometry" />
        </mxCell>
        <mxCell id="gryRLHfR9OgPqtfxZ3uL-26" value="" style="edgeStyle=orthogonalEdgeStyle;rounded=0;orthogonalLoop=1;jettySize=auto;html=1;" edge="1" parent="1" source="gryRLHfR9OgPqtfxZ3uL-15" target="gryRLHfR9OgPqtfxZ3uL-11">
          <mxGeometry relative="1" as="geometry" />
        </mxCell>
        <mxCell id="gryRLHfR9OgPqtfxZ3uL-15" value="" style="ellipse;html=1;shape=startState;fillColor=#dae8fc;strokeColor=#6c8ebf;" vertex="1" parent="1">
          <mxGeometry x="30" y="460" width="30" height="30" as="geometry" />
        </mxCell>
        <mxCell id="gryRLHfR9OgPqtfxZ3uL-17" value="" style="endArrow=classic;html=1;rounded=0;exitX=1;exitY=0.5;exitDx=0;exitDy=0;entryX=0;entryY=0.5;entryDx=0;entryDy=0;fillColor=#dae8fc;strokeColor=#6c8ebf;" edge="1" parent="1" source="gryRLHfR9OgPqtfxZ3uL-11" target="gryRLHfR9OgPqtfxZ3uL-12">
          <mxGeometry width="50" height="50" relative="1" as="geometry">
            <mxPoint x="290" y="530" as="sourcePoint" />
            <mxPoint x="340" y="480" as="targetPoint" />
          </mxGeometry>
        </mxCell>
        <mxCell id="gryRLHfR9OgPqtfxZ3uL-18" value="" style="endArrow=classic;html=1;rounded=0;exitX=0.75;exitY=0;exitDx=0;exitDy=0;entryX=0.25;entryY=1;entryDx=0;entryDy=0;fillColor=#dae8fc;strokeColor=#6c8ebf;" edge="1" parent="1" source="gryRLHfR9OgPqtfxZ3uL-12" target="gryRLHfR9OgPqtfxZ3uL-13">
          <mxGeometry width="50" height="50" relative="1" as="geometry">
            <mxPoint x="335" y="300" as="sourcePoint" />
            <mxPoint x="334" y="382" as="targetPoint" />
          </mxGeometry>
        </mxCell>
        <mxCell id="gryRLHfR9OgPqtfxZ3uL-19" value="" style="endArrow=classic;html=1;rounded=0;exitX=0.75;exitY=1;exitDx=0;exitDy=0;entryX=0.25;entryY=0;entryDx=0;entryDy=0;fillColor=#dae8fc;strokeColor=#6c8ebf;" edge="1" parent="1" source="gryRLHfR9OgPqtfxZ3uL-12" target="gryRLHfR9OgPqtfxZ3uL-14">
          <mxGeometry width="50" height="50" relative="1" as="geometry">
            <mxPoint x="345" y="310" as="sourcePoint" />
            <mxPoint x="344" y="392" as="targetPoint" />
          </mxGeometry>
        </mxCell>
        <mxCell id="gryRLHfR9OgPqtfxZ3uL-20" value="Status Updated" style="text;html=1;align=center;verticalAlign=middle;whiteSpace=wrap;rounded=0;rotation=-15;" vertex="1" parent="1">
          <mxGeometry x="480" y="420" width="100" height="30" as="geometry" />
        </mxCell>
        <mxCell id="gryRLHfR9OgPqtfxZ3uL-21" value="Status Updated" style="text;html=1;align=center;verticalAlign=middle;whiteSpace=wrap;rounded=0;rotation=5;" vertex="1" parent="1">
          <mxGeometry x="489.98" y="500.88" width="100" height="30" as="geometry" />
        </mxCell>
        <mxCell id="gryRLHfR9OgPqtfxZ3uL-23" value="" style="ellipse;html=1;shape=endState;fillColor=#dae8fc;strokeColor=#6c8ebf;" vertex="1" parent="1">
          <mxGeometry x="770" y="450" width="30" height="30" as="geometry" />
        </mxCell>
        <mxCell id="gryRLHfR9OgPqtfxZ3uL-24" value="" style="endArrow=classic;html=1;rounded=0;exitX=1;exitY=0.5;exitDx=0;exitDy=0;entryX=0;entryY=0.5;entryDx=0;entryDy=0;fillColor=#dae8fc;strokeColor=#6c8ebf;" edge="1" parent="1" source="gryRLHfR9OgPqtfxZ3uL-13" target="gryRLHfR9OgPqtfxZ3uL-23">
          <mxGeometry width="50" height="50" relative="1" as="geometry">
            <mxPoint x="473" y="500" as="sourcePoint" />
            <mxPoint x="638" y="520" as="targetPoint" />
          </mxGeometry>
        </mxCell>
        <mxCell id="gryRLHfR9OgPqtfxZ3uL-25" value="" style="endArrow=classic;html=1;rounded=0;exitX=1;exitY=0.5;exitDx=0;exitDy=0;entryX=0;entryY=0.5;entryDx=0;entryDy=0;fillColor=#dae8fc;strokeColor=#6c8ebf;" edge="1" parent="1" source="gryRLHfR9OgPqtfxZ3uL-14" target="gryRLHfR9OgPqtfxZ3uL-23">
          <mxGeometry width="50" height="50" relative="1" as="geometry">
            <mxPoint x="483" y="510" as="sourcePoint" />
            <mxPoint x="648" y="530" as="targetPoint" />
          </mxGeometry>
        </mxCell>
      </root>
    </mxGraphModel>
  </diagram>
</mxfile>
